<svg width="149" height="24" viewBox="0 0 149 24" fill="none" xmlns="http://www.w3.org/2000/svg">
<g id="Case Study Button">
<path id="Button" d="M1.32031 5.625H5.08594C5.9401 5.625 6.66146 5.75521 7.25 6.01562C7.84375 6.27604 8.29427 6.66146 8.60156 7.17188C8.91406 7.67708 9.07031 8.29948 9.07031 9.03906C9.07031 9.5599 8.96354 10.0365 8.75 10.4688C8.54167 10.8958 8.23958 11.2604 7.84375 11.5625C7.45312 11.8594 6.98438 12.0807 6.4375 12.2266L6.01562 12.3906H2.47656L2.46094 11.1641H5.13281C5.67448 11.1641 6.125 11.0703 6.48438 10.8828C6.84375 10.6901 7.11458 10.4323 7.29688 10.1094C7.47917 9.78646 7.57031 9.42969 7.57031 9.03906C7.57031 8.60156 7.48438 8.21875 7.3125 7.89062C7.14062 7.5625 6.86979 7.3099 6.5 7.13281C6.13542 6.95052 5.66406 6.85938 5.08594 6.85938H2.82812V17H1.32031V5.625ZM7.96875 17L5.20312 11.8438L6.77344 11.8359L9.57812 16.9062V17H7.96875ZM14.4688 17.1562C13.8802 17.1562 13.3464 17.0573 12.8672 16.8594C12.3932 16.6562 11.9844 16.3724 11.6406 16.0078C11.3021 15.6432 11.0417 15.2109 10.8594 14.7109C10.6771 14.2109 10.5859 13.6641 10.5859 13.0703V12.7422C10.5859 12.0547 10.6875 11.4427 10.8906 10.9062C11.0938 10.3646 11.3698 9.90625 11.7188 9.53125C12.0677 9.15625 12.4635 8.8724 12.9062 8.67969C13.349 8.48698 13.8073 8.39062 14.2812 8.39062C14.8854 8.39062 15.4062 8.49479 15.8438 8.70312C16.2865 8.91146 16.6484 9.20312 16.9297 9.57812C17.2109 9.94792 17.4193 10.3854 17.5547 10.8906C17.6901 11.3906 17.7578 11.9375 17.7578 12.5312V13.1797H11.4453V12H16.3125V11.8906C16.2917 11.5156 16.2135 11.151 16.0781 10.7969C15.9479 10.4427 15.7396 10.151 15.4531 9.92188C15.1667 9.69271 14.776 9.57812 14.2812 9.57812C13.9531 9.57812 13.651 9.64844 13.375 9.78906C13.099 9.92448 12.862 10.1276 12.6641 10.3984C12.4661 10.6693 12.3125 11 12.2031 11.3906C12.0938 11.7812 12.0391 12.2318 12.0391 12.7422V13.0703C12.0391 13.4714 12.0938 13.849 12.2031 14.2031C12.3177 14.5521 12.4818 14.8594 12.6953 15.125C12.9141 15.3906 13.1771 15.599 13.4844 15.75C13.7969 15.901 14.151 15.9766 14.5469 15.9766C15.0573 15.9766 15.4896 15.8724 15.8438 15.6641C16.1979 15.4557 16.5078 15.1771 16.7734 14.8281L17.6484 15.5234C17.4661 15.7995 17.2344 16.0625 16.9531 16.3125C16.6719 16.5625 16.3255 16.7656 15.9141 16.9219C15.5078 17.0781 15.026 17.1562 14.4688 17.1562ZM24.4297 15.5547V11.2031C24.4297 10.8698 24.362 10.5807 24.2266 10.3359C24.0964 10.0859 23.8984 9.89323 23.6328 9.75781C23.3672 9.6224 23.0391 9.55469 22.6484 9.55469C22.2839 9.55469 21.9635 9.61719 21.6875 9.74219C21.4167 9.86719 21.2031 10.0312 21.0469 10.2344C20.8958 10.4375 20.8203 10.6562 20.8203 10.8906H19.375C19.375 10.5885 19.4531 10.2891 19.6094 9.99219C19.7656 9.69531 19.9896 9.42708 20.2812 9.1875C20.5781 8.94271 20.9323 8.75 21.3438 8.60938C21.7604 8.46354 22.224 8.39062 22.7344 8.39062C23.349 8.39062 23.8906 8.49479 24.3594 8.70312C24.8333 8.91146 25.2031 9.22656 25.4688 9.64844C25.7396 10.0651 25.875 10.5885 25.875 11.2188V15.1562C25.875 15.4375 25.8984 15.737 25.9453 16.0547C25.9974 16.3724 26.0729 16.6458 26.1719 16.875V17H24.6641C24.5911 16.8333 24.5339 16.612 24.4922 16.3359C24.4505 16.0547 24.4297 15.7943 24.4297 15.5547ZM24.6797 11.875L24.6953 12.8906H23.2344C22.8229 12.8906 22.4557 12.9245 22.1328 12.9922C21.8099 13.0547 21.5391 13.151 21.3203 13.2812C21.1016 13.4115 20.9349 13.5755 20.8203 13.7734C20.7057 13.9661 20.6484 14.1927 20.6484 14.4531C20.6484 14.7188 20.7083 14.9609 20.8281 15.1797C20.9479 15.3984 21.1276 15.5729 21.3672 15.7031C21.612 15.8281 21.9115 15.8906 22.2656 15.8906C22.7083 15.8906 23.099 15.7969 23.4375 15.6094C23.776 15.4219 24.0443 15.1927 24.2422 14.9219C24.4453 14.651 24.5547 14.388 24.5703 14.1328L25.1875 14.8281C25.151 15.0469 25.0521 15.2891 24.8906 15.5547C24.7292 15.8203 24.513 16.0755 24.2422 16.3203C23.9766 16.5599 23.6589 16.7604 23.2891 16.9219C22.9245 17.0781 22.513 17.1562 22.0547 17.1562C21.4818 17.1562 20.9792 17.0443 20.5469 16.8203C20.1198 16.5964 19.7865 16.2969 19.5469 15.9219C19.3125 15.5417 19.1953 15.1172 19.1953 14.6484C19.1953 14.1953 19.2839 13.7969 19.4609 13.4531C19.638 13.1042 19.8932 12.8151 20.2266 12.5859C20.5599 12.3516 20.9609 12.1745 21.4297 12.0547C21.8984 11.9349 22.4219 11.875 23 11.875H24.6797ZM33.4766 15.3594V5H34.9297V17H33.6016L33.4766 15.3594ZM27.7891 12.8672V12.7031C27.7891 12.0573 27.8672 11.4714 28.0234 10.9453C28.1849 10.4141 28.4115 9.95833 28.7031 9.57812C29 9.19792 29.3516 8.90625 29.7578 8.70312C30.1693 8.49479 30.6276 8.39062 31.1328 8.39062C31.6641 8.39062 32.1276 8.48438 32.5234 8.67188C32.9245 8.85417 33.263 9.1224 33.5391 9.47656C33.8203 9.82552 34.0417 10.2474 34.2031 10.7422C34.3646 11.237 34.4766 11.7969 34.5391 12.4219V13.1406C34.4818 13.7604 34.3698 14.3177 34.2031 14.8125C34.0417 15.3073 33.8203 15.7292 33.5391 16.0781C33.263 16.4271 32.9245 16.6953 32.5234 16.8828C32.1224 17.0651 31.6536 17.1562 31.1172 17.1562C30.6224 17.1562 30.1693 17.0495 29.7578 16.8359C29.3516 16.6224 29 16.3229 28.7031 15.9375C28.4115 15.5521 28.1849 15.099 28.0234 14.5781C27.8672 14.0521 27.7891 13.4818 27.7891 12.8672ZM29.2422 12.7031V12.8672C29.2422 13.2891 29.2839 13.6849 29.3672 14.0547C29.4557 14.4245 29.5911 14.75 29.7734 15.0312C29.9557 15.3125 30.1875 15.5339 30.4688 15.6953C30.75 15.8516 31.0859 15.9297 31.4766 15.9297C31.9557 15.9297 32.349 15.8281 32.6562 15.625C32.9688 15.4219 33.2188 15.1536 33.4062 14.8203C33.5938 14.487 33.7396 14.125 33.8438 13.7344V11.8516C33.7812 11.5651 33.6901 11.2891 33.5703 11.0234C33.4557 10.7526 33.3047 10.513 33.1172 10.3047C32.9349 10.0911 32.7083 9.92188 32.4375 9.79688C32.1719 9.67188 31.8568 9.60938 31.4922 9.60938C31.0964 9.60938 30.7552 9.69271 30.4688 9.85938C30.1875 10.0208 29.9557 10.2448 29.7734 10.5312C29.5911 10.8125 29.4557 11.1406 29.3672 11.5156C29.2839 11.8854 29.2422 12.2812 29.2422 12.7031ZM44.5312 15.9688C44.875 15.9688 45.1927 15.8984 45.4844 15.7578C45.776 15.6172 46.0156 15.4245 46.2031 15.1797C46.3906 14.9297 46.4974 14.6458 46.5234 14.3281H47.8984C47.8724 14.8281 47.7031 15.2943 47.3906 15.7266C47.0833 16.1536 46.6797 16.5 46.1797 16.7656C45.6797 17.026 45.1302 17.1562 44.5312 17.1562C43.8958 17.1562 43.3411 17.0443 42.8672 16.8203C42.3984 16.5964 42.0078 16.2891 41.6953 15.8984C41.388 15.5078 41.1562 15.0599 41 14.5547C40.849 14.0443 40.7734 13.5052 40.7734 12.9375V12.6094C40.7734 12.0417 40.849 11.5052 41 11C41.1562 10.4896 41.388 10.0391 41.6953 9.64844C42.0078 9.25781 42.3984 8.95052 42.8672 8.72656C43.3411 8.5026 43.8958 8.39062 44.5312 8.39062C45.1927 8.39062 45.7708 8.52604 46.2656 8.79688C46.7604 9.0625 47.1484 9.42708 47.4297 9.89062C47.7161 10.349 47.8724 10.8698 47.8984 11.4531H46.5234C46.4974 11.1042 46.3984 10.7891 46.2266 10.5078C46.0599 10.2266 45.8307 10.0026 45.5391 9.83594C45.2526 9.66406 44.9167 9.57812 44.5312 9.57812C44.0885 9.57812 43.7161 9.66667 43.4141 9.84375C43.1172 10.0156 42.8802 10.25 42.7031 10.5469C42.5312 10.8385 42.4062 11.1641 42.3281 11.5234C42.2552 11.8776 42.2188 12.2396 42.2188 12.6094V12.9375C42.2188 13.3073 42.2552 13.6719 42.3281 14.0312C42.401 14.3906 42.5234 14.7161 42.6953 15.0078C42.8724 15.2995 43.1094 15.5339 43.4062 15.7109C43.7083 15.8828 44.0833 15.9688 44.5312 15.9688ZM54.5078 15.5547V11.2031C54.5078 10.8698 54.4401 10.5807 54.3047 10.3359C54.1745 10.0859 53.9766 9.89323 53.7109 9.75781C53.4453 9.6224 53.1172 9.55469 52.7266 9.55469C52.362 9.55469 52.0417 9.61719 51.7656 9.74219C51.4948 9.86719 51.2812 10.0312 51.125 10.2344C50.974 10.4375 50.8984 10.6562 50.8984 10.8906H49.4531C49.4531 10.5885 49.5312 10.2891 49.6875 9.99219C49.8438 9.69531 50.0677 9.42708 50.3594 9.1875C50.6562 8.94271 51.0104 8.75 51.4219 8.60938C51.8385 8.46354 52.3021 8.39062 52.8125 8.39062C53.4271 8.39062 53.9688 8.49479 54.4375 8.70312C54.9115 8.91146 55.2812 9.22656 55.5469 9.64844C55.8177 10.0651 55.9531 10.5885 55.9531 11.2188V15.1562C55.9531 15.4375 55.9766 15.737 56.0234 16.0547C56.0755 16.3724 56.151 16.6458 56.25 16.875V17H54.7422C54.6693 16.8333 54.612 16.612 54.5703 16.3359C54.5286 16.0547 54.5078 15.7943 54.5078 15.5547ZM54.7578 11.875L54.7734 12.8906H53.3125C52.901 12.8906 52.5339 12.9245 52.2109 12.9922C51.888 13.0547 51.6172 13.151 51.3984 13.2812C51.1797 13.4115 51.013 13.5755 50.8984 13.7734C50.7839 13.9661 50.7266 14.1927 50.7266 14.4531C50.7266 14.7188 50.7865 14.9609 50.9062 15.1797C51.026 15.3984 51.2057 15.5729 51.4453 15.7031C51.6901 15.8281 51.9896 15.8906 52.3438 15.8906C52.7865 15.8906 53.1771 15.7969 53.5156 15.6094C53.8542 15.4219 54.1224 15.1927 54.3203 14.9219C54.5234 14.651 54.6328 14.388 54.6484 14.1328L55.2656 14.8281C55.2292 15.0469 55.1302 15.2891 54.9688 15.5547C54.8073 15.8203 54.5911 16.0755 54.3203 16.3203C54.0547 16.5599 53.737 16.7604 53.3672 16.9219C53.0026 17.0781 52.5911 17.1562 52.1328 17.1562C51.5599 17.1562 51.0573 17.0443 50.625 16.8203C50.1979 16.5964 49.8646 16.2969 49.625 15.9219C49.3906 15.5417 49.2734 15.1172 49.2734 14.6484C49.2734 14.1953 49.362 13.7969 49.5391 13.4531C49.7161 13.1042 49.9714 12.8151 50.3047 12.5859C50.638 12.3516 51.0391 12.1745 51.5078 12.0547C51.9766 11.9349 52.5 11.875 53.0781 11.875H54.7578ZM63.1484 14.7578C63.1484 14.5495 63.1016 14.3568 63.0078 14.1797C62.9193 13.9974 62.7344 13.8333 62.4531 13.6875C62.1771 13.5365 61.7604 13.4062 61.2031 13.2969C60.7344 13.1979 60.3099 13.0807 59.9297 12.9453C59.5547 12.8099 59.2344 12.6458 58.9688 12.4531C58.7083 12.2604 58.5078 12.0339 58.3672 11.7734C58.2266 11.513 58.1562 11.2083 58.1562 10.8594C58.1562 10.526 58.2292 10.2109 58.375 9.91406C58.526 9.61719 58.737 9.35417 59.0078 9.125C59.2839 8.89583 59.6146 8.71615 60 8.58594C60.3854 8.45573 60.8151 8.39062 61.2891 8.39062C61.9661 8.39062 62.5443 8.51042 63.0234 8.75C63.5026 8.98958 63.8698 9.3099 64.125 9.71094C64.3802 10.1068 64.5078 10.5469 64.5078 11.0312H63.0625C63.0625 10.7969 62.9922 10.5703 62.8516 10.3516C62.7161 10.1276 62.5156 9.94271 62.25 9.79688C61.9896 9.65104 61.6693 9.57812 61.2891 9.57812C60.888 9.57812 60.5625 9.64062 60.3125 9.76562C60.0677 9.88542 59.888 10.0391 59.7734 10.2266C59.6641 10.4141 59.6094 10.612 59.6094 10.8203C59.6094 10.9766 59.6354 11.1172 59.6875 11.2422C59.7448 11.362 59.8438 11.474 59.9844 11.5781C60.125 11.6771 60.3229 11.7708 60.5781 11.8594C60.8333 11.9479 61.1589 12.0365 61.5547 12.125C62.2474 12.2812 62.8177 12.4688 63.2656 12.6875C63.7135 12.9062 64.0469 13.1745 64.2656 13.4922C64.4844 13.8099 64.5938 14.1953 64.5938 14.6484C64.5938 15.0182 64.5156 15.3568 64.3594 15.6641C64.2083 15.9714 63.987 16.237 63.6953 16.4609C63.4089 16.6797 63.0651 16.8516 62.6641 16.9766C62.2682 17.0964 61.8229 17.1562 61.3281 17.1562C60.5833 17.1562 59.9531 17.0234 59.4375 16.7578C58.9219 16.4922 58.5312 16.1484 58.2656 15.7266C58 15.3047 57.8672 14.8594 57.8672 14.3906H59.3203C59.3411 14.7865 59.4557 15.1016 59.6641 15.3359C59.8724 15.5651 60.1276 15.7292 60.4297 15.8281C60.7318 15.9219 61.0312 15.9688 61.3281 15.9688C61.724 15.9688 62.0547 15.9167 62.3203 15.8125C62.5911 15.7083 62.7969 15.5651 62.9375 15.3828C63.0781 15.2005 63.1484 14.9922 63.1484 14.7578ZM70 17.1562C69.4115 17.1562 68.8776 17.0573 68.3984 16.8594C67.9245 16.6562 67.5156 16.3724 67.1719 16.0078C66.8333 15.6432 66.5729 15.2109 66.3906 14.7109C66.2083 14.2109 66.1172 13.6641 66.1172 13.0703V12.7422C66.1172 12.0547 66.2188 11.4427 66.4219 10.9062C66.625 10.3646 66.901 9.90625 67.25 9.53125C67.599 9.15625 67.9948 8.8724 68.4375 8.67969C68.8802 8.48698 69.3385 8.39062 69.8125 8.39062C70.4167 8.39062 70.9375 8.49479 71.375 8.70312C71.8177 8.91146 72.1797 9.20312 72.4609 9.57812C72.7422 9.94792 72.9505 10.3854 73.0859 10.8906C73.2214 11.3906 73.2891 11.9375 73.2891 12.5312V13.1797H66.9766V12H71.8438V11.8906C71.8229 11.5156 71.7448 11.151 71.6094 10.7969C71.4792 10.4427 71.2708 10.151 70.9844 9.92188C70.6979 9.69271 70.3073 9.57812 69.8125 9.57812C69.4844 9.57812 69.1823 9.64844 68.9062 9.78906C68.6302 9.92448 68.3932 10.1276 68.1953 10.3984C67.9974 10.6693 67.8438 11 67.7344 11.3906C67.625 11.7812 67.5703 12.2318 67.5703 12.7422V13.0703C67.5703 13.4714 67.625 13.849 67.7344 14.2031C67.849 14.5521 68.013 14.8594 68.2266 15.125C68.4453 15.3906 68.7083 15.599 69.0156 15.75C69.3281 15.901 69.6823 15.9766 70.0781 15.9766C70.5885 15.9766 71.0208 15.8724 71.375 15.6641C71.7292 15.4557 72.0391 15.1771 72.3047 14.8281L73.1797 15.5234C72.9974 15.7995 72.7656 16.0625 72.4844 16.3125C72.2031 16.5625 71.8568 16.7656 71.4453 16.9219C71.0391 17.0781 70.5573 17.1562 70 17.1562ZM83.8672 14.7578C83.8672 14.5495 83.8203 14.3568 83.7266 14.1797C83.638 13.9974 83.4531 13.8333 83.1719 13.6875C82.8958 13.5365 82.4792 13.4062 81.9219 13.2969C81.4531 13.1979 81.0286 13.0807 80.6484 12.9453C80.2734 12.8099 79.9531 12.6458 79.6875 12.4531C79.4271 12.2604 79.2266 12.0339 79.0859 11.7734C78.9453 11.513 78.875 11.2083 78.875 10.8594C78.875 10.526 78.9479 10.2109 79.0938 9.91406C79.2448 9.61719 79.4557 9.35417 79.7266 9.125C80.0026 8.89583 80.3333 8.71615 80.7188 8.58594C81.1042 8.45573 81.5339 8.39062 82.0078 8.39062C82.6849 8.39062 83.263 8.51042 83.7422 8.75C84.2214 8.98958 84.5885 9.3099 84.8438 9.71094C85.099 10.1068 85.2266 10.5469 85.2266 11.0312H83.7812C83.7812 10.7969 83.7109 10.5703 83.5703 10.3516C83.4349 10.1276 83.2344 9.94271 82.9688 9.79688C82.7083 9.65104 82.388 9.57812 82.0078 9.57812C81.6068 9.57812 81.2812 9.64062 81.0312 9.76562C80.7865 9.88542 80.6068 10.0391 80.4922 10.2266C80.3828 10.4141 80.3281 10.612 80.3281 10.8203C80.3281 10.9766 80.3542 11.1172 80.4062 11.2422C80.4635 11.362 80.5625 11.474 80.7031 11.5781C80.8438 11.6771 81.0417 11.7708 81.2969 11.8594C81.5521 11.9479 81.8776 12.0365 82.2734 12.125C82.9661 12.2812 83.5365 12.4688 83.9844 12.6875C84.4323 12.9062 84.7656 13.1745 84.9844 13.4922C85.2031 13.8099 85.3125 14.1953 85.3125 14.6484C85.3125 15.0182 85.2344 15.3568 85.0781 15.6641C84.9271 15.9714 84.7057 16.237 84.4141 16.4609C84.1276 16.6797 83.7839 16.8516 83.3828 16.9766C82.987 17.0964 82.5417 17.1562 82.0469 17.1562C81.3021 17.1562 80.6719 17.0234 80.1562 16.7578C79.6406 16.4922 79.25 16.1484 78.9844 15.7266C78.7188 15.3047 78.5859 14.8594 78.5859 14.3906H80.0391C80.0599 14.7865 80.1745 15.1016 80.3828 15.3359C80.5911 15.5651 80.8464 15.7292 81.1484 15.8281C81.4505 15.9219 81.75 15.9688 82.0469 15.9688C82.4427 15.9688 82.7734 15.9167 83.0391 15.8125C83.3099 15.7083 83.5156 15.5651 83.6562 15.3828C83.7969 15.2005 83.8672 14.9922 83.8672 14.7578ZM90.75 8.54688V9.65625H86.1797V8.54688H90.75ZM87.7266 6.49219H89.1719V14.9062C89.1719 15.1927 89.2161 15.4089 89.3047 15.5547C89.3932 15.7005 89.5078 15.7969 89.6484 15.8438C89.7891 15.8906 89.9401 15.9141 90.1016 15.9141C90.2214 15.9141 90.3464 15.9036 90.4766 15.8828C90.612 15.8568 90.7135 15.8359 90.7812 15.8203L90.7891 17C90.6745 17.0365 90.5234 17.0703 90.3359 17.1016C90.1536 17.138 89.9323 17.1562 89.6719 17.1562C89.3177 17.1562 88.9922 17.0859 88.6953 16.9453C88.3984 16.8047 88.1615 16.5703 87.9844 16.2422C87.8125 15.9089 87.7266 15.4609 87.7266 14.8984V6.49219ZM97.6172 15.0469V8.54688H99.0703V17H97.6875L97.6172 15.0469ZM97.8906 13.2656L98.4922 13.25C98.4922 13.8125 98.4323 14.3333 98.3125 14.8125C98.1979 15.2865 98.0104 15.6979 97.75 16.0469C97.4896 16.3958 97.1484 16.6693 96.7266 16.8672C96.3047 17.0599 95.7917 17.1562 95.1875 17.1562C94.776 17.1562 94.3984 17.0964 94.0547 16.9766C93.7161 16.8568 93.4245 16.6719 93.1797 16.4219C92.9349 16.1719 92.7448 15.8464 92.6094 15.4453C92.4792 15.0443 92.4141 14.5625 92.4141 14V8.54688H93.8594V14.0156C93.8594 14.3958 93.901 14.7109 93.9844 14.9609C94.0729 15.2057 94.1901 15.401 94.3359 15.5469C94.487 15.6875 94.6536 15.7865 94.8359 15.8438C95.0234 15.901 95.2161 15.9297 95.4141 15.9297C96.0286 15.9297 96.5156 15.8125 96.875 15.5781C97.2344 15.3385 97.4922 15.0182 97.6484 14.6172C97.8099 14.2109 97.8906 13.7604 97.8906 13.2656ZM106.602 15.3594V5H108.055V17H106.727L106.602 15.3594ZM100.914 12.8672V12.7031C100.914 12.0573 100.992 11.4714 101.148 10.9453C101.31 10.4141 101.536 9.95833 101.828 9.57812C102.125 9.19792 102.477 8.90625 102.883 8.70312C103.294 8.49479 103.753 8.39062 104.258 8.39062C104.789 8.39062 105.253 8.48438 105.648 8.67188C106.049 8.85417 106.388 9.1224 106.664 9.47656C106.945 9.82552 107.167 10.2474 107.328 10.7422C107.49 11.237 107.602 11.7969 107.664 12.4219V13.1406C107.607 13.7604 107.495 14.3177 107.328 14.8125C107.167 15.3073 106.945 15.7292 106.664 16.0781C106.388 16.4271 106.049 16.6953 105.648 16.8828C105.247 17.0651 104.779 17.1562 104.242 17.1562C103.747 17.1562 103.294 17.0495 102.883 16.8359C102.477 16.6224 102.125 16.3229 101.828 15.9375C101.536 15.5521 101.31 15.099 101.148 14.5781C100.992 14.0521 100.914 13.4818 100.914 12.8672ZM102.367 12.7031V12.8672C102.367 13.2891 102.409 13.6849 102.492 14.0547C102.581 14.4245 102.716 14.75 102.898 15.0312C103.081 15.3125 103.312 15.5339 103.594 15.6953C103.875 15.8516 104.211 15.9297 104.602 15.9297C105.081 15.9297 105.474 15.8281 105.781 15.625C106.094 15.4219 106.344 15.1536 106.531 14.8203C106.719 14.487 106.865 14.125 106.969 13.7344V11.8516C106.906 11.5651 106.815 11.2891 106.695 11.0234C106.581 10.7526 106.43 10.513 106.242 10.3047C106.06 10.0911 105.833 9.92188 105.562 9.79688C105.297 9.67188 104.982 9.60938 104.617 9.60938C104.221 9.60938 103.88 9.69271 103.594 9.85938C103.312 10.0208 103.081 10.2448 102.898 10.5312C102.716 10.8125 102.581 11.1406 102.492 11.5156C102.409 11.8854 102.367 12.2812 102.367 12.7031ZM112.68 16.125L115.031 8.54688H116.578L113.188 18.3047C113.109 18.513 113.005 18.737 112.875 18.9766C112.75 19.2214 112.589 19.4531 112.391 19.6719C112.193 19.8906 111.953 20.0677 111.672 20.2031C111.396 20.3438 111.065 20.4141 110.68 20.4141C110.565 20.4141 110.419 20.3984 110.242 20.3672C110.065 20.3359 109.94 20.3099 109.867 20.2891L109.859 19.1172C109.901 19.1224 109.966 19.1276 110.055 19.1328C110.148 19.1432 110.214 19.1484 110.25 19.1484C110.578 19.1484 110.857 19.1042 111.086 19.0156C111.315 18.9323 111.508 18.7891 111.664 18.5859C111.826 18.388 111.964 18.1146 112.078 17.7656L112.68 16.125ZM110.953 8.54688L113.148 15.1094L113.523 16.6328L112.484 17.1641L109.375 8.54688H110.953Z" fill="black"/>
<g id="Icon / chevron-right">
<path id="icon" d="M134.707 16.9496L140.414 11.2426L134.707 5.53564L133.293 6.94964L137.586 11.2426L133.293 15.5356L134.707 16.9496Z" fill="black"/>
</g>
</g>
</svg>
