<svg width="25" height="25" viewBox="0 0 25 25" fill="none" xmlns="http://www.w3.org/2000/svg">
<g id="Instagram">
<path id="Vector" fill-rule="evenodd" clip-rule="evenodd" d="M16.6666 3.74268H8.66663C5.90521 3.74268 3.66663 5.98126 3.66663 8.74268V16.7427C3.66663 19.5041 5.90521 21.7427 8.66663 21.7427H16.6666C19.428 21.7427 21.6666 19.5041 21.6666 16.7427V8.74268C21.6666 5.98126 19.428 3.74268 16.6666 3.74268ZM19.9166 16.7427C19.9111 18.5353 18.4592 19.9872 16.6666 19.9927H8.66663C6.87398 19.9872 5.42212 18.5353 5.41663 16.7427V8.74268C5.42212 6.95003 6.87398 5.49817 8.66663 5.49268H16.6666C18.4592 5.49817 19.9111 6.95003 19.9166 8.74268V16.7427ZM17.4166 8.99268C17.9689 8.99268 18.4166 8.54496 18.4166 7.99268C18.4166 7.4404 17.9689 6.99268 17.4166 6.99268C16.8643 6.99268 16.4166 7.4404 16.4166 7.99268C16.4166 8.54496 16.8643 8.99268 17.4166 8.99268ZM12.6666 8.24268C10.1813 8.24268 8.16663 10.2574 8.16663 12.7427C8.16663 15.228 10.1813 17.2427 12.6666 17.2427C15.1519 17.2427 17.1666 15.228 17.1666 12.7427C17.1693 11.5484 16.696 10.4022 15.8515 9.55776C15.007 8.71327 13.8609 8.24002 12.6666 8.24268ZM9.91663 12.7427C9.91663 14.2615 11.1478 15.4927 12.6666 15.4927C14.1854 15.4927 15.4166 14.2615 15.4166 12.7427C15.4166 11.2239 14.1854 9.99268 12.6666 9.99268C11.1478 9.99268 9.91663 11.2239 9.91663 12.7427Z" fill="white"/>
</g>
</svg>
