<svg width="49" height="48" viewBox="0 0 49 48" fill="none" xmlns="http://www.w3.org/2000/svg">
<g id="Slider Arrow Right">
<path d="M0.710693 4C0.710693 1.79086 2.50155 0 4.71069 0H44.7107C46.9198 0 48.7107 1.79086 48.7107 4V44C48.7107 46.2091 46.9198 48 44.7107 48H4.71069C2.50155 48 0.710693 46.2091 0.710693 44V4Z" fill="#F2F2F2"/>
<path d="M1.21069 4C1.21069 2.067 2.7777 0.5 4.71069 0.5H44.7107C46.6437 0.5 48.2107 2.067 48.2107 4V44C48.2107 45.933 46.6437 47.5 44.7107 47.5H4.71069C2.7777 47.5 1.21069 45.933 1.21069 44V4Z" stroke="black" stroke-opacity="0.15"/>
<g id="Icon / right-arrow-alt">
<path id="icon" d="M24.0037 29.293L25.4177 30.707L32.1247 24L25.4177 17.293L24.0037 18.707L28.2967 23H18.7107V25H28.2967L24.0037 29.293Z" fill="black"/>
</g>
</g>
</svg>
