<svg width="48" height="49" viewBox="0 0 48 49" fill="none" xmlns="http://www.w3.org/2000/svg">
<path d="M0 4.11133C0 1.90219 1.79086 0.111328 4 0.111328H44C46.2091 0.111328 48 1.90219 48 4.11133V44.1113C48 46.3205 46.2091 48.1113 44 48.1113H4C1.79086 48.1113 0 46.3205 0 44.1113V4.11133Z" fill="#F2F2F2"/>
<path d="M0.5 4.11133C0.5 2.17833 2.067 0.611328 4 0.611328H44C45.933 0.611328 47.5 2.17833 47.5 4.11133V44.1113C47.5 46.0443 45.933 47.6113 44 47.6113H4C2.067 47.6113 0.5 46.0443 0.5 44.1113V4.11133Z" stroke="black" stroke-opacity="0.15"/>
<path d="M24.707 29.4043L20.414 25.1113H30V23.1113H20.414L24.707 18.8183L23.293 17.4043L16.586 24.1113L23.293 30.8183L24.707 29.4043Z" fill="black"/>
</svg>
