<svg width="25" height="25" viewBox="0 0 25 25" fill="none" xmlns="http://www.w3.org/2000/svg">
<g id="YouTube">
<path id="Vector" d="M22.2596 7.70301C22.1457 7.28041 21.9231 6.89501 21.614 6.58518C21.3048 6.27534 20.9199 6.05187 20.4976 5.93701C18.9316 5.50701 12.6666 5.50001 12.6666 5.50001C12.6666 5.50001 6.40259 5.49301 4.83559 5.90401C4.41351 6.02415 4.02941 6.25078 3.72016 6.56214C3.4109 6.8735 3.18687 7.25913 3.06959 7.68201C2.65659 9.24801 2.65259 12.496 2.65259 12.496C2.65259 12.496 2.64859 15.76 3.05859 17.31C3.28859 18.167 3.96359 18.844 4.82159 19.075C6.40359 19.505 12.6516 19.512 12.6516 19.512C12.6516 19.512 18.9166 19.519 20.4826 19.109C20.9051 18.9943 21.2903 18.7714 21.6002 18.4622C21.9101 18.153 22.134 17.7682 22.2496 17.346C22.6636 15.781 22.6666 12.534 22.6666 12.534C22.6666 12.534 22.6866 9.26901 22.2596 7.70301ZM10.6626 15.505L10.6676 9.50501L15.8746 12.51L10.6626 15.505Z" fill="white"/>
</g>
</svg>
