<svg width="25" height="25" viewBox="0 0 25 25" fill="none" xmlns="http://www.w3.org/2000/svg">
<g id="Icon / Instagram">
<path id="Vector" fill-rule="evenodd" clip-rule="evenodd" d="M16.9561 3.31689H8.95605C6.19463 3.31689 3.95605 5.55547 3.95605 8.31689V16.3169C3.95605 19.0783 6.19463 21.3169 8.95605 21.3169H16.9561C19.7175 21.3169 21.9561 19.0783 21.9561 16.3169V8.31689C21.9561 5.55547 19.7175 3.31689 16.9561 3.31689ZM20.2061 16.3169C20.2006 18.1095 18.7487 19.5614 16.9561 19.5669H8.95605C7.1634 19.5614 5.71154 18.1095 5.70605 16.3169V8.31689C5.71154 6.52424 7.1634 5.07238 8.95605 5.06689H16.9561C18.7487 5.07238 20.2006 6.52424 20.2061 8.31689V16.3169ZM17.7061 8.56689C18.2584 8.56689 18.7061 8.11917 18.7061 7.56689C18.7061 7.01461 18.2584 6.56689 17.7061 6.56689C17.1538 6.56689 16.7061 7.01461 16.7061 7.56689C16.7061 8.11917 17.1538 8.56689 17.7061 8.56689ZM12.9561 7.81689C10.4708 7.81689 8.45605 9.83161 8.45605 12.3169C8.45605 14.8022 10.4708 16.8169 12.9561 16.8169C15.4414 16.8169 17.4561 14.8022 17.4561 12.3169C17.4588 11.1226 16.9855 9.97646 16.141 9.13197C15.2965 8.28748 14.1504 7.81423 12.9561 7.81689ZM10.2061 12.3169C10.2061 13.8357 11.4373 15.0669 12.9561 15.0669C14.4749 15.0669 15.7061 13.8357 15.7061 12.3169C15.7061 10.7981 14.4749 9.56689 12.9561 9.56689C11.4373 9.56689 10.2061 10.7981 10.2061 12.3169Z" fill="white"/>
</g>
</svg>
