<svg width="25" height="25" viewBox="0 0 25 25" fill="none" xmlns="http://www.w3.org/2000/svg">
<g id="Icon / Youtube">
<path id="Vector" d="M22.549 7.27723C22.4351 6.85463 22.2125 6.46923 21.9034 6.15939C21.5943 5.84956 21.2094 5.62609 20.787 5.51123C19.221 5.08123 12.956 5.07423 12.956 5.07423C12.956 5.07423 6.69202 5.06723 5.12502 5.47823C4.70294 5.59837 4.31884 5.825 4.00958 6.13636C3.70033 6.44772 3.4763 6.83335 3.35902 7.25623C2.94602 8.82223 2.94202 12.0702 2.94202 12.0702C2.94202 12.0702 2.93802 15.3342 3.34802 16.8842C3.57802 17.7412 4.25302 18.4182 5.11102 18.6492C6.69302 19.0792 12.941 19.0862 12.941 19.0862C12.941 19.0862 19.206 19.0932 20.772 18.6832C21.1945 18.5686 21.5798 18.3456 21.8897 18.0364C22.1996 17.7272 22.4234 17.3425 22.539 16.9202C22.953 15.3552 22.956 12.1082 22.956 12.1082C22.956 12.1082 22.976 8.84323 22.549 7.27723ZM10.952 15.0792L10.957 9.07923L16.164 12.0842L10.952 15.0792Z" fill="white"/>
</g>
</svg>
